<svg width="49" height="48" viewBox="0 0 49 48" fill="none" xmlns="http://www.w3.org/2000/svg">
<rect x="0.333374" width="48" height="48" rx="24" fill="#FFA237" fill-opacity="0.3"/>
<path d="M15.3334 33V29C15.3334 27.8954 16.2288 27 17.3334 27H23.3334M28.3334 19C28.3334 21.2091 26.5425 23 24.3334 23C22.1242 23 20.3334 21.2091 20.3334 19C20.3334 16.7909 22.1242 15 24.3334 15C26.5425 15 28.3334 16.7909 28.3334 19ZM30.3334 25C30.3334 27.2091 28.5425 29 26.3334 29C28.5425 29 30.3334 30.7909 30.3334 33C30.3334 30.7909 32.1243 29 34.3334 29C32.1243 29 30.3334 27.2091 30.3334 25Z" stroke="black" stroke-width="1.5" stroke-linecap="round" stroke-linejoin="round"/>
</svg>
