<svg width="49" height="48" viewBox="0 0 49 48" fill="none" xmlns="http://www.w3.org/2000/svg">
<rect x="0.666656" width="48" height="48" rx="24" fill="#FFA237" fill-opacity="0.3"/>
<path d="M21.6666 35H27.6666M20.6666 32H28.6666M29.7369 29C30.0167 28.0231 30.6732 27.2407 31.3331 26.4679C31.4544 26.3258 31.5679 26.1706 31.6666 26C32.3473 24.8233 32.6666 23.4571 32.6666 22C32.6666 17.5817 29.0849 14 24.6666 14C20.2483 14 16.6666 17.5817 16.6666 22C16.6666 23.4571 16.9859 24.8233 17.6666 26C17.7575 26.1571 17.861 26.3012 17.9715 26.4339C18.6444 27.2421 19.3632 28.0171 19.7369 29" stroke="black" stroke-width="1.5" stroke-linecap="round" stroke-linejoin="round"/>
</svg>
