<svg width="48" height="48" viewBox="0 0 48 48" fill="none" xmlns="http://www.w3.org/2000/svg">
<rect width="48" height="48" rx="24" fill="#FFA237" fill-opacity="0.3"/>
<path d="M19.2 18H14.4C13.0745 18 12 19.0745 12 20.4V33.6C12 34.9255 13.0745 36 14.4 36H33.6C34.9255 36 36 34.9255 36 33.6V20.4C36 19.0745 34.9255 18 33.6 18H28.8M19.2 18H28.8M19.2 18V14.4C19.2 13.0745 20.2745 12 21.6 12H26.4C27.7255 12 28.8 13.0745 28.8 14.4V18M36 24H30M30 24H18M30 24V26.4M18 24H12M18 24V26.4" stroke="black" stroke-width="1.5" stroke-linecap="round" stroke-linejoin="round"/>
</svg>
