<svg width="249" height="62" viewBox="0 0 249 62" fill="none" xmlns="http://www.w3.org/2000/svg">
<path d="M24.3138 22.4902L19.451 13.9804L24.3138 5.47055H34.0393L38.902 13.9804H29.1765L24.3138 22.4902Z" fill="#F8973B"/>
<path d="M48.6275 31L43.7648 22.4902H34.0393L38.902 13.9804H48.6275L53.4902 22.4902L48.6275 31Z" fill="#F8973B"/>
<path d="M38.902 48.0196H48.6275L53.4902 39.5098L48.6275 31H38.902L43.7648 39.5098L38.902 48.0196Z" fill="#F8973B"/>
<path d="M19.451 48.0196H29.1765L34.0393 39.5098L38.902 48.0196L34.0393 56.5294H24.3138L19.451 48.0196Z" fill="#F8973B"/>
<path d="M9.72554 31H19.451L14.5883 22.4902L19.451 13.9804H9.72554L4.86279 22.4902L9.72554 31Z" fill="#F8973B"/>
<path d="M9.72554 31L4.86279 39.5098L9.72554 48.0196H19.451L24.3138 39.5098H14.5883L9.72554 31Z" fill="#F8973B"/>
<path d="M78.5334 51V18.9642H68.555V9.56941H100.182V18.9642H90.1456V51H78.5334ZM107.192 51L98.9647 19.0809H109.41L113.845 38.8626L118.513 19.0809H128.375L132.926 38.5708L137.011 19.0809H146.756L138.586 51H127.383L123.123 31.6852L118.455 51H107.192ZM164.629 51.7586C154.884 51.7586 147.473 44.6979 147.473 34.8946C147.473 25.3247 154.884 18.3224 164.629 18.3224C174.49 18.3224 181.668 25.3247 181.668 34.8946C181.668 44.6979 174.432 51.7586 164.629 51.7586ZM164.629 42.4221C168.422 42.4221 170.989 39.3294 170.989 35.0113C170.989 30.7515 168.422 27.6005 164.629 27.6005C160.894 27.6005 158.151 30.7515 158.151 35.0113C158.151 39.3294 160.894 42.4221 164.629 42.4221ZM185.798 51V42.1887H194.26V27.192L186.207 31.5685V22.0569L194.901 17.0969H204.705V42.1887H211.182V51H185.798ZM231.062 55.7849V46.4485H213.965V39.1544L229.429 17.0969H241.158V38.2207H245.884V46.4485H241.158V55.7849H231.062ZM224.994 38.2207H231.062V28.3007L224.994 38.2207Z" fill="#F2F2F2"/>
</svg>
